<svg width="324" height="100" viewBox="0 0 324 100" fill="none" xmlns="http://www.w3.org/2000/svg">
<g clip-path="url(#clip0_21_16)">
<path d="M18.6469 61.1417C20.7611 59.704 23.6786 58.7738 25.9197 58.7738C32.8118 58.7738 35.7294 62.3679 35.7294 68.1184V86.5116H28.8795V68.3721C28.8795 66.3848 27.7378 65.4545 25.9197 65.4545C23.5941 65.4545 22.1564 66.1734 21.2685 66.5116V86.4693H14.4186V68.3298C14.4186 66.3425 13.277 65.4123 11.5011 65.4123C9.42918 65.4123 7.99154 66.0042 6.84989 66.4693V86.4271H0V59.6195H4.86258L5.28541 60.5497C7.18816 59.4926 9.68287 58.7738 11.5433 58.7738C15.2643 58.7738 17.2939 59.7463 18.6469 61.1417Z" fill="#037D3F"/>
<path d="M57.2516 68.2875C57.2516 66.3848 56.2791 65.4968 53.7843 65.4968C51.1628 65.4968 47.5264 66.2156 44.6934 67.2304V60.3806C47.6956 59.0275 51.4165 58.7738 53.7843 58.7738C61.945 58.7738 64.0592 62.7061 64.0592 68.6258V86.5539H59.2812L58.8583 85.7505C56.9979 86.7231 54.5454 87.3996 52.685 87.3996C45.3277 87.3996 42.9175 82.7907 42.9175 77.759C42.9175 73.0655 45.4545 69.0909 52.685 68.6258L57.2516 68.2875ZM52.8118 74.8414C50.444 75.0529 49.7674 76.4059 49.7674 77.759C49.7674 78.9852 50.148 80.6765 52.7695 80.6765C54.2072 80.6765 56.2368 79.9154 57.2516 79.408V74.5032L52.8118 74.8414Z" fill="#4DAF4F"/>
<path d="M71.9662 59.6195H76.7442L77.1247 60.592C78.9852 59.4503 81.6068 58.7738 83.6364 58.7738C92.7696 58.7738 95.3488 63.8901 95.3488 73.1078C95.3488 82.3679 92.7696 87.4419 83.6364 87.4419C82.1987 87.4419 80.0846 87.019 78.7315 86.4271V100.042H71.9662V59.6195ZM78.7315 79.6617C79.8732 80.1268 81.6913 80.6765 83.5095 80.6765C87.5687 80.6765 88.4144 77.463 88.4144 73.1078C88.4144 68.7526 87.5687 65.5391 83.5095 65.5391C81.6491 65.5391 79.8309 66.0888 78.7315 66.5539V79.6617Z" fill="#94C03D"/>
<path d="M112.389 69.4292C120.085 70.1903 121.818 73.0233 121.818 78.055C121.818 82.5793 119.197 87.4419 110.994 87.4419C108.584 87.4419 104.651 86.6385 102.495 85.7928V78.7738C104.905 79.704 108.203 80.7188 111.036 80.7188C114.165 80.7188 115.095 79.3657 115.095 78.1818C115.095 77.1247 114.461 76.2791 111.628 76.0254C104.059 75.2643 102.199 72.093 102.199 67.907C102.199 63.7209 104.736 58.8161 112.347 58.8161C114.715 58.8161 117.59 59.1966 120.634 60.592V67.3573C117.759 66.3425 115.053 65.5391 112.347 65.5391C109.471 65.5391 108.837 66.5962 108.837 67.8647C108.879 68.6258 109.471 69.1332 112.389 69.4292Z" fill="#CEDB37"/>
<path d="M131.374 84.5666V99.9577H129.725V59.704H130.444L131.205 61.8182C133.615 60.2537 137.674 59.4503 140.761 59.4503C149.852 59.4503 152.093 65.4123 152.093 73.1501C152.093 80.888 149.852 86.8499 140.761 86.8499C137.717 86.8076 133.784 86.0465 131.374 84.5666ZM131.374 63.129V83.0867C133.827 84.6089 136.956 85.3277 140.803 85.3277C148.964 85.3277 150.444 79.1543 150.444 73.1078C150.444 67.0613 148.964 60.888 140.803 60.888C136.956 60.888 133.827 61.6491 131.374 63.129ZM179.873 84.0169V85.4546C177.759 86.2579 174.123 86.8076 171.163 86.8076C162.072 86.8076 159.831 81.0994 159.831 73.1078C159.831 65.1163 162.072 59.408 171.163 59.408C180.254 59.408 181.226 65.2009 181.226 73.1078V73.8689H161.522C161.649 79.9154 163.34 85.37 171.163 85.37C175.222 85.37 177.844 84.6512 179.873 84.0169ZM179.577 72.3467C179.577 66.5116 178.985 60.8457 171.163 60.8457C163.34 60.8457 161.649 66.2579 161.522 72.3467H179.577ZM199.704 59.408C209.26 59.408 210.951 65.2009 210.951 73.1078C210.951 81.0148 209.26 86.8076 199.704 86.8076C190.148 86.8076 188.457 81.0148 188.457 73.1078C188.457 65.2431 190.148 59.408 199.704 59.408ZM199.704 85.37C208.288 85.37 209.26 79.8732 209.26 73.1501C209.26 66.3848 208.288 60.9302 199.704 60.9302C191.12 60.9302 190.148 66.4271 190.148 73.1501C190.148 79.8732 191.12 85.37 199.704 85.37ZM220.423 84.5666V99.9577H218.774V59.704H219.493L220.254 61.8182C222.664 60.2537 226.723 59.4503 229.81 59.4503C238.901 59.4503 241.142 65.4123 241.142 73.1501C241.142 80.888 238.901 86.8499 229.81 86.8499C226.765 86.8076 222.833 86.0465 220.423 84.5666ZM220.423 63.129V83.0867C222.875 84.6089 226.004 85.3277 229.852 85.3277C238.013 85.3277 239.493 79.1543 239.493 73.1078C239.493 67.0613 238.013 60.888 229.852 60.888C226.004 60.888 222.875 61.6491 220.423 63.129ZM253.488 86.8076C250.571 86.8076 249.345 85.5391 249.345 82.8753V46.2579H250.994V82.7484C250.994 84.778 251.543 85.4968 253.531 85.4968V86.8076H253.488ZM279.831 84.0169V85.4546C277.717 86.2579 274.08 86.8076 271.121 86.8076C262.03 86.8076 259.789 81.0994 259.789 73.1078C259.789 65.1163 262.03 59.408 271.121 59.408C280.211 59.408 281.184 65.2009 281.184 73.1078V73.8689H261.48C261.607 79.9154 263.298 85.37 271.121 85.37C275.18 85.37 277.801 84.6512 279.831 84.0169ZM279.535 72.3467C279.535 66.5116 278.943 60.8457 271.121 60.8457C263.298 60.8457 261.607 66.2579 261.48 72.3467H279.535Z" fill="#727272"/>
<path d="M297.59 0C283.171 0 271.459 11.7125 271.459 26.1311C271.459 37.6744 278.943 47.4841 289.345 50.9514L297.632 74.3763L305.92 50.9514C316.321 47.4841 323.805 37.7167 323.805 26.1311C323.763 11.7125 312.051 0 297.59 0ZM297.59 34.334C293.235 34.334 289.725 30.8245 289.725 26.4693C289.725 22.1142 293.277 18.6047 297.59 18.6047C301.945 18.6047 305.455 22.1142 305.455 26.4693C305.455 30.8245 301.945 34.334 297.59 34.334Z" fill="#9CBD2D"/>
</g>
<defs>
<clipPath id="clip0_21_16">
<rect width="323.763" height="100" fill="white"/>
</clipPath>
</defs>
</svg>
