<svg width="24" height="24" viewBox="0 0 24 24" fill="none" xmlns="http://www.w3.org/2000/svg">
<path fill-rule="evenodd" clip-rule="evenodd" d="M7.79919 11.3037H5.59222C5.25397 11.3037 2 11.688 2 15.1538C2 18.6191 5.27887 19 5.69482 19H9.14062C9.33337 19 10.1828 18.771 10.5082 18.5776C10.8337 18.3848 11.2952 18.0747 11.2952 18.0747L16.2764 12.6992H18.4254C19.0518 12.6992 22 12.1128 22 8.92139C22 5.72998 19.17 5 18.4254 5H15.5541C15.4453 5.01514 15.3057 5.02588 15.1809 5.03516C15.0458 5.04541 14.9281 5.05469 14.886 5.06641C14.5887 5.14941 14.4147 5.2041 14.2186 5.28711C14.1225 5.32812 14.0211 5.37549 13.8973 5.43652C13.3892 5.68799 13.062 5.98975 13.062 5.98975L8.29041 11.0938C8.18555 11.1528 8.13586 11.2056 8.09601 11.2266C8.05615 11.2476 7.94519 11.3037 7.79919 11.3037ZM7.81836 13.5005H5.86798C5.52979 13.5005 4.22095 13.7661 4.22095 15.1445C4.22095 16.5229 5.45416 16.8101 5.87012 16.8101L8.89062 16.8257C9.08337 16.8257 9.36469 16.7051 9.54486 16.5967C9.72504 16.4878 9.83832 16.3638 9.83832 16.3638L14.7706 11.0752C14.7706 11.0752 14.8884 10.9907 15.0227 10.9033C15.1216 10.8389 15.2294 10.7734 15.3058 10.7393C15.4858 10.6582 15.938 10.5483 15.938 10.5483H18.265C18.265 10.5483 19.7853 10.2827 19.7853 8.88965C19.7853 7.49658 18.265 7.21875 18.265 7.21875L15.938 7.15381C15.938 7.15381 15.4106 7.17578 15.1931 7.24658C14.9756 7.31738 14.6124 7.58545 14.6124 7.58545L9.82233 12.6992C9.82233 12.6992 9.37061 13.0464 8.96967 13.2251C8.56873 13.4043 7.81836 13.5005 7.81836 13.5005Z" fill="#1E2025"/>
</svg>
