<svg width="24" height="24" viewBox="0 0 24 24" fill="none" xmlns="http://www.w3.org/2000/svg">
<path d="M12.4 0C10.1722 0 8.03561 0.884997 6.4603 2.4603C4.885 4.03561 4 6.17218 4 8.4C4 14.7696 11.1832 23.2248 11.4904 23.58C11.6031 23.7109 11.7426 23.816 11.8996 23.888C12.0566 23.96 12.2273 23.9973 12.4 23.9973C12.5727 23.9973 12.7434 23.96 12.9004 23.888C13.0574 23.816 13.1969 23.7109 13.3096 23.58C13.6168 23.2248 20.8 14.7696 20.8 8.4C20.8 6.17218 19.915 4.03561 18.3397 2.4603C16.7644 0.884997 14.6278 0 12.4 0ZM12.4 11.4C11.8067 11.4 11.2266 11.2241 10.7333 10.8944C10.2399 10.5648 9.85542 10.0962 9.62836 9.54805C9.4013 8.99987 9.34189 8.39667 9.45764 7.81473C9.5734 7.23279 9.85912 6.69824 10.2787 6.27868C10.6982 5.85912 11.2328 5.5734 11.8147 5.45764C12.3967 5.34189 12.9999 5.4013 13.5481 5.62836C14.0962 5.85542 14.5648 6.23994 14.8944 6.73329C15.2241 7.22664 15.4 7.80666 15.4 8.4C15.4 9.19565 15.0839 9.95871 14.5213 10.5213C13.9587 11.0839 13.1957 11.4 12.4 11.4Z" fill="#1E2025"/>
</svg>
