<svg width="24" height="24" viewBox="0 0 24 24" fill="none" xmlns="http://www.w3.org/2000/svg">
<g clip-path="url(#clip0_602_266)">
<path d="M9.09091 13H0.909091C0.407014 13 0 13.407 0 13.9091V22.0909C0 22.593 0.407014 23 0.909091 23H9.09091C9.59299 23 10 22.593 10 22.0909V13.9091C10 13.407 9.59299 13 9.09091 13Z" fill="#1E2025"/>
<path d="M16.8915 9.16242L12.4178 0.526584C12.3373 0.351041 12.2082 0.202284 12.0456 0.0979934C11.8831 -0.00629733 11.6941 -0.0617371 11.501 -0.0617371C11.3079 -0.0617371 11.1189 -0.00629733 10.9564 0.0979934C10.7938 0.202284 10.6647 0.351041 10.5842 0.526584L6.11048 9.16242C6.03369 9.31504 5.9981 9.48506 6.00722 9.65566C6.01634 9.82626 6.06986 9.99153 6.16248 10.1351C6.2551 10.2786 6.38361 10.3955 6.53528 10.4742C6.68696 10.5528 6.85654 10.5904 7.02724 10.5834H16.0298C16.1958 10.5809 16.3585 10.5362 16.5026 10.4536C16.6467 10.3711 16.7675 10.2532 16.8536 10.1112C16.9398 9.96922 16.9884 9.80767 16.995 9.64172C17.0017 9.47576 16.966 9.31085 16.8915 9.16242Z" fill="#1E2025"/>
<path d="M17.5 23C20.2614 23 22.5 20.7615 22.5 18C22.5 15.2386 20.2614 13 17.5 13C14.7386 13 12.5 15.2386 12.5 18C12.5 20.7615 14.7386 23 17.5 23Z" fill="#1E2025"/>
</g>
<defs>
<clipPath id="clip0_602_266">
<rect width="24" height="24" fill="white"/>
</clipPath>
</defs>
</svg>
